<svg xmlns="http://www.w3.org/2000/svg" width="39" height="34" viewBox="0 0 39 34"><defs><clipPath id="pj6sa"><path fill="#fff" d="M0 17V0h17v17zm8-9H1v1h7v7h1V9h7V8H9V1H8z"/></clipPath><clipPath id="pj6sb"><path fill="#fff" d="M8 1h1v7h7v1H9v7H8V9H1V8h7z"/></clipPath><clipPath id="pj6sc"><path fill="#fff" d="M22 34V17h17v17zm8-9h-7v1h7v7h1v-7h7v-1h-7v-7h-1z"/></clipPath><clipPath id="pj6sd"><path fill="#fff" d="M30 18h1v7h7v1h-7v7h-1v-7h-7v-1h7z"/></clipPath></defs><g><g><path fill="#9173e6" d="M8 1h1v7h7v1H9v7H8V9H1V8h7z"/><path fill="none" stroke="#9173e6" stroke-linecap="round" stroke-linejoin="round" stroke-miterlimit="50" stroke-width="2" d="M8 1h1v7h7v1H9v7H8V9H1V8h7z" clip-path="url(&quot;#pj6sa&quot;)"/><path fill="none" stroke="#5e42b0" stroke-miterlimit="50" stroke-width="6" d="M8 1h1v7h7v1H9v7H8V9H1V8h7z" clip-path="url(&quot;#pj6sb&quot;)"/></g><g opacity=".3"><path fill="#9173e6" d="M30 18h1v7h7v1h-7v7h-1v-7h-7v-1h7z"/><path fill="none" stroke="#9173e6" stroke-linecap="round" stroke-linejoin="round" stroke-miterlimit="50" stroke-width="2" d="M30 18h1v7h7v1h-7v7h-1v-7h-7v-1h7z" clip-path="url(&quot;#pj6sc&quot;)"/><path fill="none" stroke="#5e42b0" stroke-miterlimit="50" stroke-width="6" d="M30 18h1v7h7v1h-7v7h-1v-7h-7v-1h7z" clip-path="url(&quot;#pj6sd&quot;)"/></g></g></svg>